<svg viewBox="0 0 3000 600" xmlns="http://www.w3.org/2000/svg" xmlns:xlink="http://www.w3.org/1999/xlink">
    <!-- Definitions -->
    <defs>
        <radialGradient id="z" cx="50%" cy="50%" r="50%" fx="50%" fy="50%">
            <stop offset="0%" style="stop-color:rgb(255,255,0);stop-opacity:1" />
            <stop offset="25%" style="stop-color:rgb(255,255,0);stop-opacity:1" />
            <stop offset="100%" style="stop-color:rgb(255,255,255);stop-opacity:0.25" />
        </radialGradient>
    </defs>
    <!-- Give all the lines the same style -->
    <g stroke-width="25" stroke-linecap="butt" fill="none">
        <!-- Line 1 -->
        <polyline points="0,100 150,100 450,400 750,400 1050,200 1350,200 1650,500 1950,500 2250,300 2550,300 2850,100 3000,100" stroke="red"></polyline>
        <!-- Electricity 1 -->
        <rect x="0" y="75" width="50" height="50" fill="url(#z)">
            <animateMotion calcMode="linear" path="m 0,0 h 125 l 300,300 h 300 l 300,-200 h 300 l 300,300 h 300 l 300,-200 h 300 l 300,-200 h 150" repeatCount="indefinite" dur="3s"></animateMotion>
        </rect>
        <!-- Line 2 -->
        <polyline points="0,200 150,200 450,500 750,500 1050,300 1350,300 1650,100 1950,100 2250,400 2550,400 2850,200 3000,200" stroke="blue"></polyline>
        <!-- Electricity 2 -->
        <rect x="0" y="175" width="50" height="50" fill="url(#z)">
            <animateMotion calcMode="linear" path="m 0,0 h 125 l 300,300 h 300 l 300,-200 h 300 l 300,-200 h 300 l 300,300 h 300 l 300,-200 h 150" repeatCount="indefinite" dur="3s"></animateMotion>
        </rect>
        <!-- Line 3 -->
        <polyline points="0,300 150,300 450,100 750,100 1050,400 1350,400 1650,200 1950,200 2250,500 2550,500 2850,300 3000,300" stroke="green"></polyline>
        <!-- Electricity 1 -->
        <rect x="0" y="275" width="50" height="50" fill="url(#z)">
            <animateMotion calcMode="linear" path="m 0,0 h 125 l 300,-200 h 300 l 300,300 h 300 l 300,-200 h 300 l 300,300 h 300 l 300,-200 h 150" repeatCount="indefinite" dur="3s"></animateMotion>
        </rect>
        <!-- Line 4 -->
        <polyline points="0,400 150,400 450,200 750,200 1050,500 1350,500 1650,300 1950,300 2250,100 2550,100 2850,400 3000,400" stroke="orange"></polyline>
        <!-- Electricity 1 -->
        <rect x="0" y="375" width="50" height="50" fill="url(#z)">
            <animateMotion calcMode="linear" path="m 0,0 h 125 l 300,-200 h 300 l 300,300 h 300 l 300,-200 h 300 l 300,-200 h 300 l 300,300 h 150" repeatCount="indefinite" dur="3s"></animateMotion>
        </rect>
        <!-- Line 5 -->
        <polyline points="0,500 150,500 450,300 750,300 1050,100 1350,100 1650,400 1950,400 2250,200 2550,200 2850,500 3000,500" stroke="mediumseagreen"></polyline>
        <!-- Electricity 1 -->
        <rect x="0" y="475" width="50" height="50" fill="url(#z)">
            <animateMotion calcMode="linear" path="m 0,0 h 125 l 300,-200 h 300 l 300,-200 h 300 l 300,300 h 300 l 300,-200 h 300 l 300,300 h 150" repeatCount="indefinite" dur="3s"></animateMotion>
        </rect>
    </g>
</svg>